<?xml version="1.0" encoding="UTF-8"?>
<svg version="1.1" xmlns="http://www.w3.org/2000/svg" width="506" height="234">
<path d="M0 0 C166.98 0 333.96 0 506 0 C506 77.22 506 154.44 506 234 C339.02 234 172.04 234 0 234 C0 156.78 0 79.56 0 0 Z " fill="#FEFEFE" transform="translate(0,0)"/>
<path d="M0 0 C3.00874098 1.33803458 4.98385643 2.77584376 7.20703125 5.1953125 C7.79009033 5.82477783 8.37314941 6.45424316 8.97387695 7.1027832 C9.88399536 8.10378052 9.88399536 8.10378052 10.8125 9.125 C11.75452271 10.14823364 11.75452271 10.14823364 12.71557617 11.19213867 C16.32194779 15.12103514 19.88943912 19.08097823 23.37109375 23.12109375 C26.8515855 27.13576169 30.43910854 31.05673094 34 35 C42.56520062 44.4849537 42.56520062 44.4849537 46.5 49 C47.05429687 49.63164063 47.60859375 50.26328125 48.1796875 50.9140625 C49.54919016 52.48340675 50.90653425 54.06337409 52.2578125 55.6484375 C53.03898437 56.54820313 53.82015625 57.44796875 54.625 58.375 C55.33914063 59.20773438 56.05328125 60.04046875 56.7890625 60.8984375 C59.13119952 63.12470909 61.00462353 63.89833063 64 65 C64.50748779 64.47680176 65.01497559 63.95360352 65.5378418 63.41455078 C76.07779206 52.59243987 86.39870243 42.40086505 99 34 C103.81541591 34.13828052 106.59459687 36.85689116 110 39.9375 C111.15544351 40.94902823 112.31305328 41.95808657 113.47265625 42.96484375 C114.05934082 43.47515137 114.64602539 43.98545898 115.25048828 44.51123047 C117.90651406 46.77140981 120.65979701 48.89239608 123.4375 51 C124.52086601 51.8241758 125.60419904 52.64839495 126.6875 53.47265625 C127.23019531 53.88531738 127.77289063 54.29797852 128.33203125 54.72314453 C131.22122508 56.93486639 134.07916327 59.18612756 136.9375 61.4375 C137.80942993 62.12392578 137.80942993 62.12392578 138.69897461 62.82421875 C139.87742749 63.75225243 141.05573125 64.6804755 142.23388672 65.60888672 C145.15371048 67.90874237 148.07701893 70.20415945 151 72.5 C152.16668361 73.4166451 153.33335027 74.33331177 154.5 75.25 C155.36625 75.930625 155.36625 75.930625 156.25 76.625 C158 78 159.75 79.375 161.5 80.75 C162.07741943 81.20366943 162.65483887 81.65733887 163.24975586 82.12475586 C164.4173041 83.04215009 165.58478449 83.95963067 166.75219727 84.87719727 C169.6548279 87.15844245 172.55859274 89.43821214 175.46484375 91.71484375 C182.06453498 96.88790126 188.62632482 102.10388045 195.15917969 107.36108398 C200.81453718 111.89198014 206.57195993 116.28500285 212.36645508 120.63623047 C215.81316883 123.24249242 219.04545415 125.82405407 222 129 C214.8195298 126.78719739 208.19230788 123.90320151 201.4375 120.625 C200.35702393 120.10333252 199.27654785 119.58166504 198.16333008 119.04418945 C182.43581985 111.37376329 166.98681808 103.03810301 152 94 C157.30554214 102.60832995 163.06446757 110.81923598 169 119 C168.67 119.66 168.34 120.32 168 121 C167.52691406 120.55197021 167.05382812 120.10394043 166.56640625 119.64233398 C164.37906087 117.57251045 162.18954382 115.5049977 160 113.4375 C158.88431641 112.38079102 158.88431641 112.38079102 157.74609375 111.30273438 C153.54302983 107.33723493 149.28057333 103.46622298 144.91699219 99.6784668 C129.21136538 85.92704241 114.69696911 70.80714129 100 56 C98.89183434 56.9264712 97.78702572 57.85695849 96.68359375 58.7890625 C96.06798584 59.30678223 95.45237793 59.82450195 94.81811523 60.35791016 C92.23253064 62.69316489 90.15044314 65.26307237 88 68 C88.60585938 68.21011719 89.21171875 68.42023438 89.8359375 68.63671875 C97.74964897 71.91177781 101.75694179 77.22549133 106.56494141 84.01367188 C109.25257042 87.73373817 112.10759956 91.32527605 114.9375 94.9375 C116.14089152 96.48286541 117.34401883 98.02843661 118.546875 99.57421875 C121.58603087 103.47223 124.63321519 107.36383465 127.6875 111.25 C128.12594238 111.8083252 128.56438477 112.36665039 129.01611328 112.94189453 C131.30614015 115.85547292 133.60484566 118.76175966 135.9140625 121.66015625 C140.90009799 127.93436201 145.73615747 134.19944103 150 141 C147.21176763 139.71076019 145.01003398 138.31380469 142.71484375 136.27734375 C142.10753418 135.74351074 141.50022461 135.20967773 140.87451172 134.65966797 C140.23529785 134.09135254 139.59608398 133.52303711 138.9375 132.9375 C137.58567086 131.7501222 136.23280037 130.56392895 134.87890625 129.37890625 C134.21648926 128.79898926 133.55407227 128.21907227 132.87158203 127.62158203 C129.55814354 124.75074216 126.14836673 122.0014959 122.7421875 119.2421875 C119.62999852 116.69746317 116.56273503 114.10381775 113.5 111.5 C108.64345327 107.37286129 103.7461325 103.30464017 98.77734375 99.3125 C96.84497549 97.70355202 94.96465843 96.03086394 93.12890625 94.3125 C79.42302581 81.57958158 61.36515935 76.10923592 44 70 C43.9915623 72.17130216 43.98911148 74.34235251 43.99462891 76.51367188 C43.99924335 78.64973981 43.99110643 80.78582856 43.98046875 82.921875 C44.51439123 92.79440394 47.16688229 97.51884711 54.47729492 104.19042969 C55.96167305 105.48731833 57.47769348 106.74784928 59 108 C55.2842898 108 53.85924641 106.91266758 50.7109375 104.97265625 C49.68742187 104.34552734 48.66390625 103.71839844 47.609375 103.07226562 C46.54203125 102.40904297 45.4746875 101.74582031 44.375 101.0625 C43.29992187 100.40314453 42.22484375 99.74378906 41.1171875 99.06445312 C33.1770705 94.1770705 33.1770705 94.1770705 32 93 C31.93482105 91.14239993 31.87828177 89.2841286 31.86332703 87.42544556 C32.65392128 67.2058289 32.65392128 67.2058289 25.01953125 49.5859375 C21.01915051 46.28443884 16.77403111 43.99219028 12 42 C11.84144531 42.65484375 11.68289063 43.3096875 11.51953125 43.984375 C9.90862815 50.28558714 7.81948277 56.1330046 5.18359375 62.078125 C2.95100952 67.58958706 1.71789134 73.13116509 0.8515625 79 C0.65046875 80.299375 0.449375 81.59875 0.2421875 82.9375 C-0.06884736 84.97051017 -0.37556076 87.00385152 -0.671875 89.0390625 C-2.73080001 103.07226188 -2.73080001 103.07226188 -7 109 C-7.40234863 109.56525391 -7.80469727 110.13050781 -8.21923828 110.71289062 C-9.57313522 112.58431987 -10.9678196 114.41834634 -12.375 116.25 C-13.43451316 117.64383285 -14.49306359 119.03839789 -15.55078125 120.43359375 C-16.38536865 121.53356689 -16.38536865 121.53356689 -17.23681641 122.65576172 C-21.00116195 127.66064207 -24.68207127 132.72824639 -28.36669922 137.79199219 C-28.92760254 138.55801758 -29.48850586 139.32404297 -30.06640625 140.11328125 C-30.56084229 140.79173096 -31.05527832 141.47018066 -31.56469727 142.16918945 C-32.93887974 143.92203763 -34.39059649 145.46341208 -36 147 C-34.48990145 141.94684451 -32.33161518 137.48098768 -29.90234375 132.828125 C-29.50801651 132.06449646 -29.11368927 131.30086792 -28.70741272 130.51409912 C-27.4548182 128.09061484 -26.19628352 125.67027442 -24.9375 123.25 C-24.08749113 121.60827969 -23.23787763 119.96635462 -22.38867188 118.32421875 C-20.83961886 115.32977053 -19.28819679 112.33657605 -17.73413086 109.34472656 C-13.7420644 101.64497851 -15.05012303 95.92779174 -17.5625 87.9375 C-17.9327832 86.77250977 -17.9327832 86.77250977 -18.31054688 85.58398438 C-19.67597335 81.04153741 -20.51091874 77.66357171 -19 73 C-17.72228165 71.12748172 -16.38216049 69.29680864 -15 67.5 C-8.89986202 58.78304146 -9.80161697 48.23188015 -10 38 C-19.89786951 44.36108989 -28.22883035 50.24631148 -34.78369141 60.21484375 C-37.3504503 63.98203384 -40.16761642 67.56874457 -42.9375 71.1875 C-43.50629883 71.94313232 -44.07509766 72.69876465 -44.66113281 73.47729492 C-45.19448242 74.17959229 -45.72783203 74.88188965 -46.27734375 75.60546875 C-46.75421631 76.23606201 -47.23108887 76.86665527 -47.72241211 77.51635742 C-49 79 -49 79 -51 80 C-50.29411026 72.94110263 -49.21786614 65.98795036 -48 59 C-53.51146049 63.87899781 -58.88554242 68.82616336 -64.04296875 74.078125 C-66.72319351 76.71020201 -69.56027802 79.13682886 -72.43359375 81.5546875 C-74.11503767 82.93500379 -74.11503767 82.93500379 -75 85 C-74.41138184 85.27094482 -73.82276367 85.54188965 -73.21630859 85.82104492 C-71.02667303 86.98581141 -69.39371297 88.22674776 -67.5390625 89.86328125 C-66.90226563 90.42080078 -66.26546875 90.97832031 -65.609375 91.55273438 C-64.62710938 92.42381836 -64.62710938 92.42381836 -63.625 93.3125 C-62.32598764 94.45495808 -61.02651424 95.59689217 -59.7265625 96.73828125 C-59.10297852 97.28693848 -58.47939453 97.8355957 -57.83691406 98.40087891 C-55.25981728 100.64436427 -52.63548002 102.825525 -50 105 C-50.99 105.495 -50.99 105.495 -52 106 C-54.39160156 104.86352539 -54.39160156 104.86352539 -57.390625 103.09765625 C-58.48713379 102.45771729 -59.58364258 101.81777832 -60.71337891 101.15844727 C-61.89232672 100.45992325 -63.07119917 99.76127203 -64.25 99.0625 C-65.43750769 98.36628574 -66.62549618 97.67089092 -67.81396484 96.97631836 C-70.1504245 95.60995887 -72.48474816 94.24006598 -74.81738281 92.8671875 C-78.73600841 90.56819635 -82.67491387 88.30686712 -86.625 86.0625 C-87.68976563 85.45535156 -88.75453125 84.84820312 -89.8515625 84.22265625 C-90.91503906 83.61744141 -90.91503906 83.61744141 -92 83 C-91.82001362 96.76203514 -90.12557305 105.3408351 -80.52099609 115.37988281 C-77.97498886 118.09180962 -75.66467779 120.99555091 -73.3125 123.875 C-71.87704122 125.58504887 -70.44035335 127.29407173 -69 129 C-69.33 129.66 -69.66 130.32 -70 131 C-70.95519531 130.16597656 -71.91039062 129.33195313 -72.89453125 128.47265625 C-79.69632548 122.54745925 -86.52097831 116.67339511 -93.53515625 111 C-94.34855469 110.34 -95.16195312 109.68 -96 109 C-96.96107666 108.27772217 -97.92215332 107.55544434 -98.91235352 106.8112793 C-102.19701972 104.06210703 -104.04355985 100.85001461 -105.8671875 97.01953125 C-106.19163849 96.36546799 -106.51608948 95.71140472 -106.85037231 95.03752136 C-107.52728259 93.66667722 -108.19753412 92.29252636 -108.86132812 90.9152832 C-109.88031294 88.80147872 -110.9186651 86.69810845 -111.9609375 84.59570312 C-112.61831869 83.25836796 -113.27460861 81.92049568 -113.9296875 80.58203125 C-114.23897186 79.95182571 -114.54825623 79.32162018 -114.86691284 78.6723175 C-117 74.23574549 -117 74.23574549 -117 72 C-122.64086886 76.14730547 -127.7238598 80.53409133 -132.56640625 85.59375 C-134.49504691 87.50072054 -136.43572059 89.24452992 -138.49609375 91 C-144.47021083 96.17928344 -149.94732287 101.87850834 -155.5 107.5 C-168.05942584 120.21507526 -168.05942584 120.21507526 -174.34179688 125.56884766 C-176.67435472 127.58201817 -178.83905903 129.74279433 -181 131.9375 C-181.763125 132.70964844 -182.52625 133.48179687 -183.3125 134.27734375 C-184.1478125 135.13005859 -184.1478125 135.13005859 -185 136 C-185.66 135.67 -186.32 135.34 -187 135 C-186.52054932 134.31373535 -186.04109863 133.6274707 -185.54711914 132.92041016 C-183.77001894 130.37541118 -181.99410499 127.82958997 -180.21899414 125.28320312 C-179.07204312 123.63868311 -177.92372248 121.9951186 -176.77539062 120.3515625 C-175.69741211 118.8046875 -175.69741211 118.8046875 -174.59765625 117.2265625 C-173.93258057 116.27346191 -173.26750488 115.32036133 -172.58227539 114.33837891 C-171.00159014 112.11223164 -171.00159014 112.11223164 -170 110 C-172.70914975 111.4555269 -175.41797517 112.91165327 -178.12646484 114.3684082 C-180.48317434 115.63590018 -182.84027309 116.90264666 -185.19775391 118.16870117 C-190.79065929 121.17513897 -196.37440063 124.19531554 -201.921875 127.28515625 C-210.89674166 132.27674213 -219.9001633 137.05451786 -229.25 141.3125 C-230.10255371 141.7041333 -230.95510742 142.0957666 -231.83349609 142.49926758 C-232.61547363 142.84626709 -233.39745117 143.1932666 -234.203125 143.55078125 C-234.89051758 143.85669189 -235.57791016 144.16260254 -236.28613281 144.4777832 C-238 145 -238 145 -240 144 C-194.5 108.25 -194.5 108.25 -192.75024414 106.87524414 C-191.5826959 105.95784991 -190.41521551 105.04036933 -189.24780273 104.12280273 C-186.3451721 101.84155755 -183.44140726 99.56178786 -180.53515625 97.28515625 C-175.18304902 93.08999658 -169.84357675 88.8817142 -164.54492188 84.61914062 C-157.91952172 79.28956006 -151.21584056 74.08091849 -144.43334961 68.95263672 C-140.74087989 66.14661336 -137.10887076 63.28994265 -133.54296875 60.32421875 C-132.82230225 59.72601318 -132.10163574 59.12780762 -131.35913086 58.51147461 C-129.98711054 57.36560974 -128.62163165 56.21185098 -127.26391602 55.04907227 C-126.64572998 54.53272217 -126.02754395 54.01637207 -125.390625 53.484375 C-124.85469727 53.02772461 -124.31876953 52.57107422 -123.76660156 52.10058594 C-121.46415131 50.66616834 -119.70564776 50.20324237 -117 50 C-114.97045898 50.95288086 -114.97045898 50.95288086 -112.99609375 52.46484375 C-112.26092529 53.01454834 -111.52575684 53.56425293 -110.76831055 54.13061523 C-109.99914307 54.72688721 -109.22997559 55.32315918 -108.4375 55.9375 C-106.82895835 57.13653545 -105.21958125 58.33445091 -103.609375 59.53125 C-102.82498047 60.12164062 -102.04058594 60.71203125 -101.23242188 61.3203125 C-98.24418309 63.56868114 -95.24208271 65.7795361 -92.1875 67.9375 C-91.29417969 68.58589844 -90.40085938 69.23429687 -89.48046875 69.90234375 C-87.07484967 71.24516461 -87.07484967 71.24516461 -84.61328125 70.5625 C-81.0466822 68.43000431 -78.08276476 65.83587191 -75 63.0625 C-73.66203318 61.8808592 -72.32348116 60.69988073 -70.984375 59.51953125 C-70.31599609 58.92736816 -69.64761719 58.33520508 -68.95898438 57.72509766 C-66.08720763 55.19618758 -63.1743192 52.71779483 -60.25 50.25 C-59.71624756 49.79882812 -59.18249512 49.34765625 -58.63256836 48.8828125 C-55.3025311 46.07598644 -51.94148428 43.31008284 -48.5625 40.5625 C-43.69870975 36.60491812 -38.94118769 32.53457554 -34.19165039 28.44165039 C-29.81109166 24.6744777 -25.35793077 21.00732571 -20.87109375 17.3671875 C-16.7839589 13.99738652 -12.77374376 10.53996601 -8.76953125 7.07226562 C-5.91539475 4.60762711 -3.05990192 2.21034684 0 0 Z " fill="#A2CA4F" transform="translate(262,14)"/>
<path d="M0 0 C3.3 0 6.6 0 10 0 C11.65 5.94 13.3 11.88 15 18 C15.639375 15.958125 16.27875 13.91625 16.9375 11.8125 C17.29714844 10.66394531 17.65679687 9.51539063 18.02734375 8.33203125 C19.12468161 4.75149171 19.12468161 4.75149171 20 0 C23.63 0 27.26 0 31 0 C31 10.56 31 21.12 31 32 C28.69 32 26.38 32 24 32 C23.67 26.06 23.34 20.12 23 14 C21.68 19.94 20.36 25.88 19 32 C16.69 32 14.38 32 12 32 C10.35 26.06 8.7 20.12 7 14 C6.67 19.94 6.34 25.88 6 32 C4.02 32 2.04 32 0 32 C0 21.44 0 10.88 0 0 Z " fill="#A7CC59" transform="translate(178,193)"/>
<path d="M0 0 C4.5478125 -0.12375 4.5478125 -0.12375 9.1875 -0.25 C10.60712036 -0.30462402 10.60712036 -0.30462402 12.05541992 -0.36035156 C16.21574001 -0.41511005 18.4337676 -0.35090458 22.05078125 1.890625 C24.59403447 4.64284292 24.96365273 5.51839868 25.25 9.3125 C24.98368917 13.24058469 24.43481646 14.95647943 22 18 C17.32045985 21.01872121 12.38587877 20.12823521 7 20 C7 23.96 7 27.92 7 32 C4.69 32 2.38 32 0 32 C0 21.44 0 10.88 0 0 Z " fill="#A9CC57" transform="translate(259,193)"/>
<path d="M0 0 C2.05078125 0.03255208 4.1015625 0.06510417 6.15234375 0.09765625 C7.86572208 4.33173612 9.57460002 8.56759317 11.27929688 12.80517578 C11.86008738 14.24708241 12.44211375 15.68849188 13.02539062 17.12939453 C13.86261686 19.1982546 14.69541084 21.26885044 15.52734375 23.33984375 C15.7898291 23.98573456 16.05231445 24.63162537 16.32275391 25.29708862 C18.15234375 29.86991284 18.15234375 29.86991284 18.15234375 32.09765625 C14.83984375 32.41015625 14.83984375 32.41015625 11.15234375 32.09765625 C9.19656258 29.70024707 8.15234375 28.22179017 8.15234375 25.09765625 C3.86234375 25.09765625 -0.42765625 25.09765625 -4.84765625 25.09765625 C-5.50765625 27.40765625 -6.16765625 29.71765625 -6.84765625 32.09765625 C-9.15765625 32.09765625 -11.46765625 32.09765625 -13.84765625 32.09765625 C-11.81153702 24.93428931 -9.39964019 17.98256694 -6.72265625 11.03515625 C-6.36300781 10.08705078 -6.00335938 9.13894531 -5.6328125 8.16210938 C-2.56019076 0.13531664 -2.56019076 0.13531664 0 0 Z " fill="#A7CC56" transform="translate(225.84765625,192.90234375)"/>
<path d="M0 0 C2.64 0 5.28 0 8 0 C9.71337833 4.23407987 11.42225627 8.46993692 13.12695312 12.70751953 C13.70774363 14.14942616 14.28977 15.59083563 14.87304688 17.03173828 C15.71027311 19.10059835 16.54306709 21.17119419 17.375 23.2421875 C17.63748535 23.88807831 17.8999707 24.53396912 18.17041016 25.19943237 C20 29.77225659 20 29.77225659 20 32 C17.69 32 15.38 32 13 32 C12.34 29.69 11.68 27.38 11 25 C6.38 25 1.76 25 -3 25 C-3.33 26.98 -3.66 28.96 -4 31 C-5 32 -5 32 -8.5625 32.0625 C-9.696875 32.041875 -10.83125 32.02125 -12 32 C-8.27641107 21.21215547 -4.33383119 10.55795046 0 0 Z " fill="#A7CB54" transform="translate(310,193)"/>
<path d="M0 0 C3.5264081 2.00482831 6.45379618 4.24966504 7.6875 8.203125 C7.790625 8.79609375 7.89375 9.3890625 8 10 C5.69 10.33 3.38 10.66 1 11 C0.649375 10.34 0.29875 9.68 -0.0625 9 C-1.9505684 6.64240616 -1.9505684 6.64240616 -5.5 6.5 C-8.96954789 6.64408072 -8.96954789 6.64408072 -10.6953125 8.65625 C-12.33682764 11.6050796 -12.40021228 13.63836333 -12.375 17 C-12.38273438 18.03125 -12.39046875 19.0625 -12.3984375 20.125 C-11.95352755 23.33533061 -11.27392212 24.72071485 -9 27 C-6.08617271 27.75060849 -6.08617271 27.75060849 -3 27 C-2.175 26.154375 -1.35 25.30875 -0.5 24.4375 C0.325 23.633125 1.15 22.82875 2 22 C5.3125 22.1875 5.3125 22.1875 8 23 C6.76141604 27.95433585 5.27241667 30.18645731 1 33 C-4.06162836 34.68720945 -7.73429904 34.51486141 -12.6875 32.5 C-16.74237673 29.8880749 -18.67978937 26.58930361 -20 22 C-20.81547587 15.99513222 -20.4613587 11.13235945 -17 6 C-12.03303375 0.41216297 -7.37328538 -1.3061946 0 0 Z " fill="#A8CC55" transform="translate(152,192)"/>
<path d="M0 0 C7.59 0 15.18 0 23 0 C23 6.46076164 21.9450145 8.00233836 17.875 12.375 C16.86422029 13.51023836 15.85509774 14.64695443 14.84765625 15.78515625 C14.35797363 16.33187988 13.86829102 16.87860352 13.36376953 17.44189453 C10.70556802 20.47888738 8.36815722 23.73578329 6 27 C11.94 27 17.88 27 24 27 C24 28.65 24 30.3 24 32 C15.42 32 6.84 32 -2 32 C-2 24.81662933 -1.31952738 23.26473634 3.1875 18.5 C4.19978789 17.37277137 5.21022765 16.24388013 6.21875 15.11328125 C6.70214844 14.57912598 7.18554688 14.0449707 7.68359375 13.49462891 C10.0356996 10.82408143 12.01311809 7.94606628 14 5 C9.38 5 4.76 5 0 5 C0 3.35 0 1.7 0 0 Z " fill="#A4CA4F" transform="translate(360,193)"/>
<path d="M0 0 C7.59 0 15.18 0 23 0 C23 6.46076164 21.9450145 8.00233836 17.875 12.375 C16.86422029 13.51023836 15.85509774 14.64695443 14.84765625 15.78515625 C14.35797363 16.33187988 13.86829102 16.87860352 13.36376953 17.44189453 C10.70556802 20.47888738 8.36815722 23.73578329 6 27 C11.94 27 17.88 27 24 27 C24 28.65 24 30.3 24 32 C15.42 32 6.84 32 -2 32 C-2 24.81662933 -1.31952738 23.26473634 3.1875 18.5 C4.19978789 17.37277137 5.21022765 16.24388013 6.21875 15.11328125 C6.70214844 14.57912598 7.18554688 14.0449707 7.68359375 13.49462891 C10.0356996 10.82408143 12.01311809 7.94606628 14 5 C9.38 5 4.76 5 0 5 C0 3.35 0 1.7 0 0 Z " fill="#A4CA4F" transform="translate(333,193)"/>
<path d="M0 0 C2.31 0 4.62 0 7 0 C7 10.56 7 21.12 7 32 C4.69 32 2.38 32 0 32 C0 21.44 0 10.88 0 0 Z " fill="#A9CD5A" transform="translate(165,193)"/>
<path d="M0 0 C1.98 0 3.96 0 6 0 C6 10.56 6 21.12 6 32 C4.02 32 2.04 32 0 32 C0 21.44 0 10.88 0 0 Z " fill="#A5C94C" transform="translate(388,193)"/>
<path d="M0 0 C1.98 0 3.96 0 6 0 C6 10.56 6 21.12 6 32 C4.02 32 2.04 32 0 32 C0 21.44 0 10.88 0 0 Z " fill="#A5C94C" transform="translate(289,193)"/>
<path d="M0 0 C1.45792884 -0.05399736 2.91642712 -0.09279177 4.375 -0.125 C5.18710937 -0.14820313 5.99921875 -0.17140625 6.8359375 -0.1953125 C9 0 9 0 11 2 C11.125 4.625 11.125 4.625 11 7 C8.59454362 8.20272819 7.05003047 8.10071472 4.375 8.0625 C3.14910156 8.04896484 3.14910156 8.04896484 1.8984375 8.03515625 C0.95871094 8.01775391 0.95871094 8.01775391 0 8 C0 5.36 0 2.72 0 0 Z " fill="#FBFEFB" transform="translate(266,199)"/>
<path d="M0 0 C0.66 0 1.32 0 2 0 C2.99 3.63 3.98 7.26 5 11 C2.36 11 -0.28 11 -3 11 C-2.01 7.37 -1.02 3.74 0 0 Z " fill="#F1F8EA" transform="translate(313,201)"/>
<path d="M0 0 C2 1 2 1 3.125 3.8125 C4 7 4 7 4 11 C1.69 11 -0.62 11 -3 11 C-2.69078116 9.54096742 -2.37751201 8.08279278 -2.0625 6.625 C-1.88847656 5.81289062 -1.71445313 5.00078125 -1.53515625 4.1640625 C-1 2 -1 2 0 0 Z " fill="#F2F9EC" transform="translate(227,201)"/>
<path d="M0 0 C0.33 0.99 0.66 1.98 1 3 C-0.21484375 5.04296875 -0.21484375 5.04296875 -1.9375 7.1875 C-2.50339844 7.90292969 -3.06929687 8.61835938 -3.65234375 9.35546875 C-4.09707031 9.89816406 -4.54179687 10.44085938 -5 11 C-5.33 10.34 -5.66 9.68 -6 9 C-5.29296875 7.08984375 -5.29296875 7.08984375 -4.1875 4.9375 C-3.83042969 4.22464844 -3.47335938 3.51179687 -3.10546875 2.77734375 C-2 1 -2 1 0 0 Z " fill="#B3D36C" transform="translate(232,150)"/>
<path d="M0 0 C0.33 0 0.66 0 1 0 C1.08131463 1.43655854 1.13933559 2.8744483 1.1875 4.3125 C1.23970703 5.51326172 1.23970703 5.51326172 1.29296875 6.73828125 C0.93801608 9.47851584 0.10633718 10.29171079 -2 12 C-1 3.42857143 -1 3.42857143 0 0 Z " fill="#D8F1EB" transform="translate(201,203)"/>
</svg>
